<?xml version="1.0" encoding="utf-8"?>
<!-- Generator: Adobe Illustrator 23.0.2, SVG Export Plug-In . SVG Version: 6.00 Build 0)  -->
<svg version="1.1"
	 id="svg2" xmlns:cc="http://creativecommons.org/ns#" xmlns:dc="http://purl.org/dc/elements/1.1/" xmlns:rdf="http://www.w3.org/1999/02/22-rdf-syntax-ns#" xmlns:svg="http://www.w3.org/2000/svg"
	 xmlns="http://www.w3.org/2000/svg" xmlns:xlink="http://www.w3.org/1999/xlink" x="0px" y="0px" viewBox="0 0 300 300"
	 style="enable-background:new 0 0 300 300;" xml:space="preserve">
<style type="text/css">
	.st0{display:none;}
	.st1{display:none;fill:#02FF02;}
	.st2{fill:#02FF02;}
</style>
<g id="g10" transform="matrix(1.3333333,0,0,-1.3333333,0,300)">
	<g id="g12" transform="scale(0.1)">
		<path id="path14" class="st0" d="M-271.4,2538.5h2842.1V-303.5H-271.4V2538.5"/>
		<path id="path16" class="st1" d="M984.2,2381.3c301.3,35.9,616-36.9,866.1-210.1c338-222.9,555.3-616.4,564.5-1021.1
			c9.7-283.6-79.7-568.7-247.7-797.2c-155-209-373-372.6-620.8-454c-244.5-82.6-514.1-91.1-762.2-18.7
			C363.3-2.9,17.1,345.7-96.7,767.4c-69,242.5-61.6,505.9,17.9,745c92.3,282.1,286.5,530.3,539.9,685.1
			C619.1,2296.1,799.1,2359.8,984.2,2381.3"/>
		<path id="path18" class="st0" d="M1047.2,2281.6c223.2,16.5,451.8-29.7,648-138.8c259.7-137.7,458.8-380.3,554.4-657.2
			c93.7-280.9,79.6-597.8-46.6-866.4c-106.9-231.3-289.8-426.4-515-546.1c-232.3-126.1-508.5-167-768-117.9
			C660,1.5,420.3,143,246.9,341.1C95.8,518.6-6.4,739.6-31.3,972.2C-61,1229.8-6.8,1498.1,131,1718.5
			C322.1,2039,674.2,2257.9,1047.2,2281.6"/>
		<path id="path20" class="st2" d="M436.1,2217.6c148.5,63,331.6,32.6,449.9-78.9c89.9-78.9,139-192.3,170.2-306
			c51.5-2.9,103.2-2.9,154.8,0.1c28.8,111.4,75,222.3,163.1,299.3c100,88.9,242.7,135,373.6,99.2c83.8-17.1,155.5-73.2,205.7-141.5
			c32.6-43.4,40.5-98.5,60.7-147.8c25.7-29.5,63.3-45.5,89.7-74.7c46.8-54,76.2-130.5,49.8-201.3c-31.1,70.3-65.2,146.2-140.8,177.3
			c-7.4-36.7-21.5-73.2-18.4-111.2c107.3-89.7,207.1-199.8,245.3-338.6c31-123.5-9.9-256.6-96.9-347.4
			c-18.9,30.5-36.9,61.2-55.5,91.7c54.1,73,68.2,169,42.5,256c-35.5,100.6-115.9,174.1-187.7,248.6c-32.7-38-70.3-71.2-105.3-107.3
			c3.2-55.7,34.5-104.8,62.2-151.5c87.4-131.8,187.3-257.7,245.8-406.5c36.5-78.9,42.4-169,30.1-254.3
			c-35.2-119.5-111.2-234.9-226.5-287.6c-9.2,33.5-17.5,67.3-25.7,101.1c54.5,42.6,107.1,92.8,127.1,161.8
			c44.3,113.1,6.1,237.6-52.4,337.5c-87.2,151.2-193.6,292.5-256.5,456.8c-9.6-4.2-28.8-12.5-38.3-16.7
			c30.5-51.9,65.2-107.3,58.2-170.7c2.2-69.8-29-134.5-74.4-185.6c-33.3,35.8-71,79.9-124.3,77.9c-30.7-12.8-46.9-47.2-35.9-79
			c46-51.3,118.9-59.5,182.6-71.2c83.9-17,168.6,2.2,251.8,13.5c14.9-28.2,29.4-56.6,44-85c-182-89-388.3-33.4-581.2-38
			c-73.8,0.6-113.5-73.5-138.8-133.2c-42.7-123.7-15.1-256.7-1.9-383.2c-31.2-23.4-62.2-47.4-92.5-72.3
			c-32.5,167.5-58.5,337.5-51.9,508.7c5,50.6,21.3,100.6,47.3,144c63.3,31.3,138.3,35.1,196.1,78.9
			c96.7,60.1,150.7,174.3,151.6,287.2c-174.6-7.8-349.2-24.2-524.1-17.9c-90.3,4.3-180.5,7.5-270.5,14.1
			c8.1-95.3,50.9-188.4,126.7-247.5c53.7-50.9,125.4-71.4,191.5-99.3c33.3-50.6,47.3-111.9,53.7-171.5
			c9.8-150.5-14.7-300.5-41.7-448.1C1046.1,274.9,989.5,151.8,884.9,80c-45.8-33.7-106-28.9-158.7-20
			c-46.9,8.5-79.3,47.3-113.2,77.4c27.1,13.2,53.1,30.5,83,37.2c38.8,2.2,78.6-10.7,116.8,0.6c56.1,26.2,97.4,79,118.6,137
			c46.2,120.5,57.9,251.8,56.4,380.3c-3.9,94.7-44.2,202.4-132.6,246.3c-145.7,4.7-291.6-27-437.3-9.6
			c-97.7,9.9-196.1,37-277.5,94.2C16,1113.6-34.8,1294.5,25.1,1437.1C67.6,1553,156.2,1642.3,244.5,1724
			c-9.6,37.7-18.2,75.5-26.6,113.5c-61.8-38.7-91.6-105.5-122.5-168.8c-28.8,91.7,25.5,185.6,97,239.2
			c28.9,17.7,33.3,52.6,42.8,82.2C261.2,2092.8,340.6,2177,436.1,2217.6"/>
		<path id="path22" d="M891.8,1716.5c28.9,8.3,63.3,7.9,86.7-13.6c41.1-27.8,26.4-86.8,5.8-123.3c-33.4-58.3-108.3-115.2-175.6-76.5
			C755.3,1579.7,802.2,1696,891.8,1716.5"/>
		<path id="path24" d="M1359.2,1718.6c87,24.1,179-60.1,165.1-149.4c-7.4-31-18.4-79-60-71c-77.5,14.1-135.1,89.5-142.3,167
			C1321.3,1688.2,1332.5,1717.7,1359.2,1718.6"/>
		<path id="path26" class="st0" d="M210.9,1408.6c27.5,97.1,99.5,168,162.3,240.2c36-39.2,74.3-75.9,112.8-112.4
			c-47.9-135.7-143.1-242-209.9-366.2c26.5-15,49.9-44.2,81.6-44.3c24.1,26.7,41.6,59.1,60.8,89.8c53.2,91.7,110,182,145.6,283.5
			c9-1.2,26.7-3.8,35.6-5.1c-23.4-46.5-48.4-94.9-47.4-149.5c-5.3-71.3,25.9-138.4,68.1-191.4c30.1,30,58.5,74,104.5,72.2
			c37.9,1.8,65.4-60.5,32-85.6c-49.4-40.5-114.2-49.2-173.9-59c-107.4-16.7-225.5,0.7-311.6,75.9
			C205.6,1218.5,193,1321.5,210.9,1408.6"/>
		<path id="path28" class="st0" d="M1549.2,1474.8c17.6,2.8,35.1,5.7,52.8,8.5c-17.1-23.2-34-46.3-51-69.4
			C1550,1434.1,1549.5,1454.5,1549.2,1474.8"/>
		<path id="path30" class="st0" d="M676.3,1467.3c22,1.2,44,2.2,66.1,3.1c1.1-21.9,2.4-43.8,3.4-65.6
			C720.4,1422.8,697.4,1444.1,676.3,1467.3"/>
		<path id="path32" class="st2" d="M115.6,1004.5c31-14.5,61.6-29.6,92.5-44.8c-23.1-91.7-42-194.2,0.8-283.3
			c48.7-131.6,201.4-179.9,328.7-182c-0.6-34.6-1-69.3-1.2-103.9c-130.3-2.6-273.4,35.2-359,141.1C107.9,614.1,60,721.4,66.9,831.6
			C70.6,892.1,94.3,948.6,115.6,1004.5"/>
		<path id="path34" class="st2" d="M1328,856.6c50.1,80.3,158.7,90.3,236.9,50.9c34.7-43.7,71.6-85.4,113.1-122.7
			c-16.9-31.6-34.5-62.9-52.3-93.9C1532.3,755.8,1442.5,833.4,1328,856.6"/>
		<path id="path36" class="st2" d="M359.4,548.7c72.9,157.9,241.3,231.4,334.8,372.6c75.7-1.9,168.7,20.5,222.5-49.3
			c-1.8-4.6-5.5-13.8-7.4-18.2c-46.6-17.9-96.7-29.8-137.6-60.4c-112.7-81.9-225.5-168.1-309-281.7
			C428.1,523.4,393.6,535.7,359.4,548.7"/>
		<path id="path38" class="st2" d="M316,837.7c75.5,47.9,170.8,7.2,233.1-44.8c-20.8-20.3-41.8-40.3-63-60.4
			c-38.4,30.6-81.6,58.7-132.8,51.3c-14.7-36.7-27.2-74.3-43.9-110.2C281.7,722.2,258.9,800.7,316,837.7"/>
		<path id="path40" class="st2" d="M1755.9,829.2c55.9,28.7,136.9,49.8,186.7-0.8c39.8-45.1,25.3-109.1-6.1-154.2
			c-12.2,35.3-22.2,71.4-33.7,106.9c-35.8,0.3-77.2,3.8-105.8-22.5c-61-63.9-81.5-154-96.5-238.5c-29.6,7-59.2,14.5-88.6,22
			C1627.4,649.1,1661.5,767,1755.9,829.2"/>
		<path id="path42" class="st2" d="M850.1,817.4c27.9,3.9,55.6,9,83.2,14.3c21.1-61.1,44.9-125.9,33-191.7
			c-84.1-90.3-180.5-172.2-292.9-224.4c-5.6,36.2-10.5,72.5-14.2,108.9C721,564.3,789,603.6,825.1,671
			C851.4,715,847.2,768.2,850.1,817.4"/>
		<path id="path44" class="st2" d="M1314.8,831.2c28.9-4.7,57.7-9.3,86.5-13.2c1.4-63.4,5.5-132.2,48-183
			c70.3-88.5,184.1-121.9,291-137.5c50.4-2.2,48.7-64.7,61.2-101.1c-131.3-13.8-268.5,23.8-370.3,109.6
			c-50.9,43-104.4,83.6-148.9,133.6C1274.3,704.9,1293.9,770,1314.8,831.2"/>
		<path id="path46" class="st2" d="M1731.7,595.9c15,36.2,30.7,71.9,47.7,107.1c74.9-79.4,139.7-177.3,149.2-289.4
			c-6.2-87.2-42-177.4-113.2-230.5c-41.3-31-94.7-31.3-143.5-37.8c7,33.8,11,69.1,26.7,100.2c40.2,35.1,96.7,58.4,112.7,114.8
			C1834.6,448.2,1772.4,524.7,1731.7,595.9"/>
		<path id="path48" class="st2" d="M543,591.6c23.9,19.2,47.6,38.5,71.3,57.7c31.6-107.8,37-220.9,48.3-332.2
			c-31.4-15.4-63.2-30.1-95.4-44C553.2,378.7,550,485.4,543,591.6"/>
		<path id="path50" class="st2" d="M323.4,401c39.6-11.7,89.7-11.1,115.4-49.1c31.5-42.6,68.3-99.3,128.9-91.4
			c80.6,19.5,146.7,73.6,216.3,116.3c48.2,31.6,108.3,26.4,162.9,30.3c-9.2-31.2-17.5-63-32.1-92.1c-43.2-22.4-93.7-29.5-133.5-59.4
			C696.3,199,600,125.2,491.7,155.6C384.8,183.5,339.2,301.1,323.4,401"/>
		<path id="path52" class="st2" d="M1190.9,54.4c-96.3,123.8-8.3,340.3,149.3,351.7c84.8,8.1,157.1-49.5,224.3-93.6
			c-4.5-33.4-16.4-65.3-28.1-96.7c-51.5,30.5-100.6,69.6-160.3,82.2c-83.8,15.6-171.3-61.6-163.7-148.2
			c4.8-62.5,57.1-103,92.5-148.9C1262.9,6.8,1216.8,17,1190.9,54.4"/>
		<path id="path54" class="st2" d="M1497.9,169.5c86.8,34.6,82.3,146.5,98.2,224.4c34.4-5,68.7-10.4,102.8-16.6
			c-12.5-106.8-34-229.6-125.2-297.6c-48.6-26.2-107.2-30.1-160.9-21.6c-77.6,23-127.7,93.4-172.7,156.7
			c26.7,22.7,53.8,44.8,81.9,65.7C1369,231.5,1420.9,154.9,1497.9,169.5"/>
		<path id="path56" class="st2" d="M1036,149c-0.8,54.7,4.1,109.8,28.6,159.4c36.3-68.5,54.4-155.5,11.8-225.8
			C1053.8,31,1002,1.5,947,2C980.3,47.9,1038.9,85.6,1036,149"/>
	</g>
</g>
</svg>
