<?xml version="1.0" encoding="utf-8"?>
<!-- Generator: Adobe Illustrator 23.0.2, SVG Export Plug-In . SVG Version: 6.00 Build 0)  -->
<svg version="1.1"
	 id="svg2" xmlns:cc="http://creativecommons.org/ns#" xmlns:dc="http://purl.org/dc/elements/1.1/" xmlns:rdf="http://www.w3.org/1999/02/22-rdf-syntax-ns#" xmlns:svg="http://www.w3.org/2000/svg"
	 xmlns="http://www.w3.org/2000/svg" xmlns:xlink="http://www.w3.org/1999/xlink" x="0px" y="0px" viewBox="0 0 300 300"
	 style="enable-background:new 0 0 300 300;" xml:space="preserve">
<style type="text/css">
	.st0{display:none;}
	.st1{display:none;fill:#02FF02;}
	.st2{fill:#02FF02;}
</style>
<g id="g10" transform="matrix(1.3333333,0,0,-1.3333333,0,300)">
	<g id="g12" transform="scale(0.1)">
		<path id="path14" class="st0" d="M0,2250h2250V0H0V2250"/>
		<path id="path16" class="st1" d="M994,2125.5c238.5,28.4,487.7-29.2,685.7-166.3c267.6-176.5,439.6-488,446.9-808.4
			c7.7-224.5-63.1-450.2-196.1-631.1c-122.7-165.5-295.3-295-491.5-359.4c-193.6-65.4-407-72.1-603.4-14.8
			C502.5,238,228.4,514,138.3,847.8c-54.6,192-48.8,400.5,14.2,589.8c73.1,223.3,226.8,419.8,427.4,542.4
			C705,2058.1,847.5,2108.5,994,2125.5"/>
		<path id="path18" class="st0" d="M1043.9,2046.6c176.7,13.1,357.7-23.5,513-109.9c205.6-109,363.2-301.1,438.9-520.3
			c74.2-222.4,63-473.3-36.9-685.9c-84.6-183.1-229.4-337.6-407.7-432.3c-183.9-99.8-402.6-132.2-608-93.3
			c-205.8,36.6-395.6,148.6-532.9,305.4C290.7,650.9,209.8,825.8,190.1,1010c-23.5,203.9,19.4,416.3,128.5,590.8
			C469.9,1854.5,748.6,2027.8,1043.9,2046.6"/>
		<path id="path20" class="st2" d="M613,1886.6c107.9,45.3,241,23.4,327-56.7c65.3-56.7,101-138.2,123.7-219.9
			c37.4-2.1,75-2.1,112.5,0.1c20.9,80.1,54.5,159.8,118.5,215.1c72.7,63.9,176.4,97,271.5,71.3c60.9-12.3,113-52.6,149.5-101.7
			c23.7-31.2,29.4-70.8,44.1-106.2c18.7-21.2,46-32.7,65.2-53.7c34-38.8,55.4-93.8,36.2-144.7c-22.6,50.5-47.4,105.1-102.3,127.4
			c-5.4-26.4-15.6-52.6-13.4-79.9c78-64.5,150.5-143.6,178.3-243.4c22.5-88.8-7.2-184.4-70.4-249.7c-13.7,21.9-26.8,44-40.3,65.9
			c39.3,52.5,49.6,121.5,30.9,184c-25.8,72.3-84.2,125.1-136.4,178.7c-23.8-27.3-51.1-51.2-76.5-77.1c2.3-40,25.1-75.3,45.2-108.9
			c63.5-94.7,136.1-185.2,178.6-292.2c26.5-56.7,30.8-121.5,21.9-182.8c-25.6-85.9-80.8-168.8-164.6-206.7
			c-6.7,24.1-12.7,48.4-18.7,72.7c39.6,30.6,77.8,66.7,92.4,116.3c32.2,81.3,4.4,170.8-38.1,242.6
			c-63.4,108.7-140.7,210.2-186.4,328.3c-7-3-20.9-9-27.8-12c22.2-37.3,47.4-77.1,42.3-122.7c1.6-50.2-21.1-96.7-54.1-133.4
			c-24.2,25.7-51.6,57.4-90.3,56c-22.3-9.2-34.1-33.9-26.1-56.8c33.4-36.9,86.4-42.8,132.7-51.2c61-12.2,122.5,1.6,183,9.7
			c10.8-20.3,21.4-40.7,32-61.1c-132.3-64-282.2-24-422.4-27.3c-53.6,0.4-82.5-52.8-100.9-95.7c-31-88.9-11-184.5-1.4-275.4
			c-22.7-16.8-45.2-34.1-67.2-52c-23.6,120.4-42.5,242.6-37.7,365.6c3.6,36.4,15.5,72.3,34.4,103.5c46,22.5,100.5,25.2,142.5,56.7
			c70.3,43.2,109.5,125.3,110.2,206.4c-126.9-5.6-253.8-17.4-380.9-12.9c-65.6,3.1-131.2,5.4-196.6,10.1
			c5.9-68.5,37-135.4,92.1-177.9c39-36.6,91.1-51.3,139.2-71.4c24.2-36.4,34.4-80.4,39-123.3c7.1-108.2-10.7-216-30.3-322.1
			c-16.8-87.9-57.9-176.4-133.9-228c-33.3-24.2-77-20.8-115.3-14.4c-34.1,6.1-57.6,34-82.3,55.6c19.7,9.5,38.6,21.9,60.3,26.7
			c28.2,1.6,57.1-7.7,84.9,0.4c40.8,18.8,70.8,56.8,86.2,98.5c33.6,86.6,42.1,181,41,273.3c-2.8,68.1-32.1,145.5-96.4,177
			c-105.9,3.4-211.9-19.4-317.8-6.9c-71,7.1-142.5,26.6-201.7,67.7c-90.4,65-127.3,195-83.8,297.5c30.9,83.3,95.3,147.5,159.5,206.2
			c-7,27.1-13.2,54.3-19.3,81.6c-44.9-27.8-66.6-75.8-89-121.3C344.6,1558,384,1625.5,436,1664c21,12.7,24.2,37.8,31.1,59.1
			C485.9,1796.9,543.6,1857.4,613,1886.6"/>
		<path id="path22" d="M944.2,1526.4c21,6,46,5.7,63-9.8c29.9-20,19.2-62.4,4.2-88.6c-24.3-41.9-78.7-82.8-127.6-55
			C845,1428.1,879.1,1511.7,944.2,1526.4"/>
		<path id="path24" d="M1283.9,1527.9c63.2,17.3,130.1-43.2,120-107.4c-5.4-22.3-13.4-56.8-43.6-51c-56.3,10.1-98.2,64.3-103.4,120
			C1256.3,1506.1,1264.5,1527.3,1283.9,1527.9"/>
		<path id="path26" class="st0" d="M381.8,1286.8c21.8,71.9,78.8,124.4,128.5,177.9c28.5-29,58.8-56.2,89.3-83.2
			c-37.9-100.5-113.3-179.2-166.2-271.2c21-11.1,39.5-32.7,64.6-32.8c19.1,19.8,32.9,43.8,48.1,66.5
			c42.1,67.9,87.1,134.8,115.3,209.9c7.1-0.9,21.1-2.8,28.2-3.8c-18.5-34.4-38.3-70.3-37.5-110.7c-4.2-52.8,20.5-102.5,53.9-141.7
			c23.8,22.2,46.3,54.8,82.7,53.5c30,1.3,51.8-44.8,25.3-63.4c-39.1-30-90.4-36.4-137.7-43.7c-85-12.4-178.5,0.5-246.7,56.2
			C377.6,1146,367.7,1222.3,381.8,1286.8"/>
		<path id="path28" class="st0" d="M1441.3,1335.8c13.9,2.1,27.8,4.2,41.8,6.3c-13.5-17.2-26.9-34.3-40.4-51.4
			C1442,1305.7,1441.6,1320.8,1441.3,1335.8"/>
		<path id="path30" class="st0" d="M750.3,1330.3c17.4,0.9,34.8,1.6,52.3,2.3c0.9-16.2,1.9-32.4,2.7-48.6
			C785.2,1297.3,767,1313.1,750.3,1330.3"/>
		<path id="path32" class="st2" d="M380.1,1014.7c22.5-10.4,44.8-21.3,67.2-32.2c-16.8-65.9-30.5-139.6,0.6-203.6
			c35.4-94.6,146.4-129.3,238.9-130.8c-0.4-24.9-0.7-49.8-0.9-74.7c-94.7-1.9-198.7,25.3-260.9,101.4
			c-50.5,59.3-85.3,136.4-80.3,215.6C347.4,933.9,364.6,974.5,380.1,1014.7"/>
		<path id="path34" class="st2" d="M1261.2,908.4c36.4,57.7,115.3,64.9,172.2,36.6c25.2-31.4,52-61.4,82.2-88.2
			c-12.3-22.7-25.1-45.2-38-67.5C1409.7,835.9,1344.4,891.7,1261.2,908.4"/>
		<path id="path36" class="st2" d="M557.3,687.1c53,113.5,175.4,166.3,243.3,267.8c55-1.4,122.6,14.7,161.7-35.4
			c-1.3-3.3-4-9.9-5.4-13.1c-33.9-12.9-70.3-21.4-100-43.4C775,804.1,693,742.2,632.3,660.5C607.2,668.9,582.1,677.7,557.3,687.1"/>
		<path id="path38" class="st2" d="M525.7,894.8c54.9,34.4,124.1,5.2,169.4-32.2c-15.1-14.6-30.4-29-45.8-43.4
			c-27.9,22-59.3,42.2-96.5,36.9c-10.7-26.4-19.8-53.4-31.9-79.2C500.8,811.8,484.2,868.2,525.7,894.8"/>
		<path id="path40" class="st2" d="M1572.2,888.7c40.6,20.6,99.5,35.8,135.7-0.6c28.9-32.4,18.4-78.4-4.4-110.8
			c-8.9,25.4-16.1,51.3-24.5,76.8c-26,0.2-56.1,2.7-76.9-16.2c-44.3-45.9-59.2-110.7-70.1-171.4c-21.5,5-43,10.4-64.4,15.8
			C1478.8,759.2,1503.6,844,1572.2,888.7"/>
		<path id="path42" class="st2" d="M913.9,880.2c20.3,2.8,40.4,6.5,60.5,10.3c15.3-43.9,32.6-90.5,24-137.8
			c-61.1-64.9-131.2-123.8-212.9-161.3c-4.1,26-7.6,52.1-10.3,78.3c44.9,28.6,94.3,56.8,120.5,105.3
			C914.8,806.6,911.8,844.8,913.9,880.2"/>
		<path id="path44" class="st2" d="M1251.6,890.1c21-3.4,41.9-6.7,62.9-9.5c1-45.6,4-95,34.9-131.5c51.1-63.6,133.8-87.6,211.5-98.8
			c36.6-1.6,35.4-46.5,44.5-72.7c-95.4-9.9-195.1,17.1-269.1,78.8c-37,30.9-75.9,60.1-108.2,96
			C1222.2,799.3,1236.4,846.1,1251.6,890.1"/>
		<path id="path46" class="st2" d="M1554.6,721c10.9,26,22.3,51.7,34.7,77c54.4-57.1,101.5-127.4,108.4-208
			c-4.5-62.7-30.5-127.5-82.3-165.7c-30-22.3-68.8-22.5-104.3-27.2c5.1,24.3,8,49.7,19.4,72c29.2,25.2,70.3,42,81.9,82.5
			C1629.4,614.8,1584.2,669.8,1554.6,721"/>
		<path id="path48" class="st2" d="M690.7,717.9c17.4,13.8,34.6,27.7,51.8,41.5c23-77.5,26.9-158.8,35.1-238.8
			c-22.8-11.1-45.9-21.6-69.3-31.6C698.1,564.9,695.8,641.6,690.7,717.9"/>
		<path id="path50" class="st2" d="M531.1,580.9c28.8-8.4,65.2-8,83.9-35.3c22.9-30.6,49.6-71.4,93.7-65.7
			c58.6,14,106.6,52.9,157.2,83.6c35,22.7,78.7,19,118.4,21.8c-6.7-22.4-12.7-45.3-23.3-66.2c-31.4-16.1-68.1-21.2-97-42.7
			c-61.9-40.7-131.9-93.7-210.6-71.9C575.7,424.6,542.6,509.1,531.1,580.9"/>
		<path id="path52" class="st2" d="M1161.6,331.8c-70,89-6,244.6,108.5,252.8c61.6,5.8,114.2-35.6,163-67.3
			c-3.3-24-11.9-46.9-20.4-69.5c-37.4,21.9-73.1,50-116.5,59.1c-60.9,11.2-124.5-44.3-119-106.5c3.5-44.9,41.5-74,67.2-107
			C1213.9,297.6,1180.4,304.9,1161.6,331.8"/>
		<path id="path54" class="st2" d="M1384.7,414.5c63.1,24.9,59.8,105.3,71.4,161.3c25-3.6,49.9-7.5,74.7-11.9
			c-9.1-76.8-24.7-165-91-213.9c-35.3-18.8-77.9-21.6-116.9-15.5c-56.4,16.5-92.8,67.1-125.5,112.6c19.4,16.3,39.1,32.2,59.5,47.2
			C1291,459.1,1328.7,404,1384.7,414.5"/>
		<path id="path56" class="st2" d="M1049,399.8c-0.6,39.3,3,78.9,20.8,114.6c26.4-49.2,39.5-111.8,8.6-162.3
			c-16.5-37.1-54.1-58.3-94.1-58C1008.5,327.1,1051.1,354.2,1049,399.8"/>
	</g>
</g>
</svg>
