<?xml version="1.0" standalone="no"?>
<!DOCTYPE svg PUBLIC "-//W3C//DTD SVG 20010904//EN"
 "http://www.w3.org/TR/2001/REC-SVG-20010904/DTD/svg10.dtd">
<svg version="1.0" xmlns="http://www.w3.org/2000/svg"
 width="29.000000pt" height="18.000000pt" viewBox="0 0 29.000000 18.000000"
 preserveAspectRatio="xMidYMid meet">
<metadata>
Created by potrace 1.15, written by Peter Selinger 2001-2017
</metadata>
<g transform="translate(0.000000,18.000000) scale(0.100000,-0.100000)"
fill="#000000" stroke="none">
<path d="M12 168 c-21 -21 -15 -75 10 -92 12 -9 29 -16 38 -16 8 0 23 -14 32
-30 14 -24 24 -30 52 -30 36 0 66 21 66 46 0 8 8 14 18 14 28 0 62 38 62 68 0
37 -17 52 -57 52 -24 0 -38 -7 -55 -30 -12 -16 -26 -30 -31 -30 -5 0 -22 14
-37 30 -30 32 -76 40 -98 18z"/>
</g>
</svg>
