<?xml version="1.0" encoding="utf-8"?>
<!-- Generator: Adobe Illustrator 23.0.2, SVG Export Plug-In . SVG Version: 6.00 Build 0)  -->
<svg version="1.1" id="Layer_1" xmlns="http://www.w3.org/2000/svg" xmlns:xlink="http://www.w3.org/1999/xlink" x="0px" y="0px"
	 viewBox="0 0 16.4 10.3" style="enable-background:new 0 0 16.4 10.3;" xml:space="preserve">
<g transform="translate(0.000000,872.000000) scale(0.100000,-0.100000)" fill="#E82363" stroke="none">
	<path d="M130.9,8718.8c-8.4-0.8-19.4-6.4-25.4-12.9c-3.6-3.9-6.2-8.1-8.1-13.1c-1.4-3.8-2.4-8.6-2.4-12.1v-1l-1.4,0.4
		c-3.9,1.1-7.1,1.7-10.6,1.7c-4.6,0.1-8.3-0.4-13-2l-1.6-0.5l0.1,0.8c0.2,1.2,0,4.3-0.3,5.9c-0.8,4.8-2.6,9-5.5,13.1
		c-4,5.7-10.7,11.2-17.4,14.4c-3.5,1.6-7.3,2.8-11,3.3c-1.9,0.3-6.3,0.3-8.2,0c-6-0.9-10.8-3.4-15.3-7.7c-1.9-1.9-2.8-2.9-4.1-4.8
		c-2.4-3.6-4-7.9-4.5-12.6c-0.2-1.6-0.2-5.4,0-6.9c0.9-8.1,4.9-15.6,11.2-20.9c3.1-2.6,7.5-5.5,11.1-7.4c7.8-4,14.4-4.9,24.5-3.3
		c1,0.2,1.9,0.3,1.9,0.3c0,0,0-1.5,0-3.4c0-4.7,0.3-7.3,1.4-10.7c1.6-4.8,5.6-10.7,9.5-14.3c2.2-2,3.8-3,6.4-4.3
		c2.8-1.4,5.3-2.1,8.6-2.7c2-0.3,6.7-0.4,9.1-0.2c8.5,0.7,14.8,3.8,20.4,9.9c2.7,2.9,4,4.8,5.3,7.5c1.2,2.5,2.1,5.3,2.5,8.5
		c0.2,1.6,0.3,8.2,0.1,9.9c-0.1,0.6-0.1,1.1-0.1,1.1c0,0,0.6,0,1.2-0.1c4.4-0.8,9.5-0.9,13.2-0.3c8.2,1.3,15.9,5.7,23.6,13.5
		c5,5.1,7.9,10.4,9.1,16.3c0.4,1.8,0.4,5.6,0.2,7.7c-0.6,4.6-2.3,8.9-5.4,13.7c-5,7.6-11.4,12.1-18.9,13.1
		C135.9,8718.8,132.2,8718.9,130.9,8718.8z M66.7,8672.2c2.1-0.6,3.5-2.2,4-4.9c0.2-1,0.2-1.4,0.2-3.1c-0.1-4.1-1.2-6.7-3.9-9.5
		c-3.8-3.8-8.1-4.4-11-1.5c-1.8,1.8-2.7,4.6-2.5,7.8c0.2,3.1,1,5.2,3,7.3c1.8,1.8,4,3.2,6.1,3.8C64,8672.4,65.7,8672.5,66.7,8672.2z
		 M103.4,8671.9c3.4-0.9,7-3.9,8.3-6.9c0.6-1.5,0.8-2.7,0.8-4.6c0-2.6-0.4-4.2-1.4-5.9c-0.9-1.6-2.7-2.8-4.4-3.1
		c-2.3-0.4-5.2,0.8-7.5,3.2c-2.2,2.2-3.2,4-3.7,6.9c-0.3,1.6-0.4,4-0.2,5.4c0.5,3.1,2,4.9,4.6,5.4
		C100.5,8672.3,102.3,8672.2,103.4,8671.9z M111.9,8647.9c0-5.3-1.5-9.9-4.5-13.9c-1-1.4-3-3.4-4.3-4.4c-2.9-2.3-6.6-4.3-10.5-5.5
		c-8.3-2.7-16-2.1-23.7,1.6c-7.4,3.6-12.7,9.8-14.5,16.8c-0.5,2.1-0.9,5.2-0.7,5.2c0.1,0,0.8-0.2,1.6-0.4c4-1.1,9.8-1.9,16.7-2.4
		c2.8-0.2,12.7-0.2,15.3,0c6.3,0.5,10.9,1.1,15.5,2.2c2.9,0.7,6.5,1.8,8.1,2.5c0.3,0.2,0.7,0.3,0.7,0.3
		C111.8,8649.7,111.9,8648.9,111.9,8647.9z"/>
</g>
</svg>
