<?xml version="1.0" standalone="no"?>
<!DOCTYPE svg PUBLIC "-//W3C//DTD SVG 20010904//EN"
 "http://www.w3.org/TR/2001/REC-SVG-20010904/DTD/svg10.dtd">
<svg version="1.0" xmlns="http://www.w3.org/2000/svg"
 width="29.000000pt" height="18.000000pt" viewBox="0 0 29.000000 18.000000"
 preserveAspectRatio="xMidYMid meet">
<metadata>
Created by potrace 1.15, written by Peter Selinger 2001-2017
</metadata>
<g transform="translate(0.000000,18.000000) scale(0.100000,-0.100000)"
fill="#E82363" stroke="none">
<path d="M11125 8713 c-722 -67 -1672 -550 -2196 -1114 -315 -340 -538 -700
-702 -1134 -125 -331 -207 -745 -207 -1045 l0 -88 -117 34 c-336 97 -615 143
-918 151 -397 10 -717 -38 -1126 -170 l-135 -43 9 70 c13 102 1 372 -22 506
-71 416 -222 778 -474 1134 -347 490 -928 971 -1506 1244 -300 141 -627 241
-947 289 -167 24 -544 24 -704 0 -517 -80 -936 -291 -1323 -667 -168 -163
-242 -250 -352 -415 -209 -312 -342 -684 -391 -1085 -16 -137 -18 -462 -4
-598 75 -696 424 -1344 969 -1801 271 -226 650 -478 961 -638 671 -345 1247
-423 2114 -288 88 14 161 25 162 25 0 0 1 -132 0 -292 -1 -410 28 -629 125
-923 135 -411 480 -928 822 -1233 194 -173 326 -262 552 -372 242 -119 456
-185 740 -231 169 -27 580 -37 787 -20 737 62 1282 328 1760 858 229 254 345
417 457 644 107 215 178 456 218 736 20 139 24 707 6 858 -6 50 -9 92 -7 94 2
3 48 -3 102 -12 376 -65 824 -75 1142 -26 711 111 1376 494 2035 1170 429 440
685 898 786 1404 31 158 38 482 14 661 -52 393 -202 770 -470 1179 -430 658
-988 1045 -1634 1130 -97 13 -418 18 -526 8z m-5542 -4018 c184 -48 300 -189
349 -421 17 -85 19 -124 15 -269 -11 -354 -103 -579 -337 -816 -324 -330 -701
-381 -951 -130 -152 153 -230 394 -216 671 13 267 88 448 262 629 152 159 345
277 531 326 107 29 259 33 347 10z m3162 -25 c296 -78 606 -338 716 -600 54
-129 73 -229 73 -400 1 -221 -32 -360 -122 -513 -79 -136 -230 -241 -384 -267
-198 -34 -453 73 -651 274 -186 187 -273 347 -323 593 -28 140 -34 349 -14
466 47 270 173 419 395 467 61 14 221 3 310 -20z m735 -2079 c0 -459 -127
-854 -387 -1204 -90 -120 -255 -293 -368 -384 -250 -201 -569 -370 -903 -477
-717 -231 -1378 -184 -2045 142 -636 312 -1097 846 -1251 1447 -46 180 -81
445 -58 445 5 0 68 -16 138 -35 344 -94 847 -166 1444 -207 241 -16 1100 -16
1325 0 541 39 941 95 1335 187 252 59 561 156 700 219 30 14 58 25 63 25 4 1
7 -71 7 -158z"/>
</g>
</svg>
