<?xml version="1.0" encoding="utf-8"?>
<!-- Generator: Adobe Illustrator 23.0.2, SVG Export Plug-In . SVG Version: 6.00 Build 0)  -->
<svg version="1.1" id="Layer_1" xmlns="http://www.w3.org/2000/svg" xmlns:xlink="http://www.w3.org/1999/xlink" x="0px" y="0px"
	 viewBox="0 0 60 58" style="enable-background:new 0 0 60 58;" xml:space="preserve">
<style type="text/css">
	.st0{display:none;}
	.st1{display:inline;}
	.st2{fill:#7289DA;}
	.st3{fill:#FBB848;}
	.st4{display:inline;fill:#FBB848;}
	.st5{fill:#DD4DAC;}
	.st6{fill:none;}
	.st7{filter:url(#Adobe_OpacityMaskFilter);}
	.st8{fill-rule:evenodd;clip-rule:evenodd;fill:#FFFFFF;}
	.st9{mask:url(#ic_profile_badge_partner_color_32px-b_2_);fill-rule:evenodd;clip-rule:evenodd;fill:#4087ED;}
	.st10{display:inline;fill:#7289DA;}
</style>
<g class="st0">
	<g class="st1">
		<path class="st2" d="M25.5,4.52c0,0,0.18-0.27,0.26-0.4c0.08-0.12-0.2-0.41-0.3-0.5c-0.11-0.09-0.27-0.05-0.27-0.05
			c-1.33,0.59-2,1.8-2.09,2.04C23,5.86,23.32,6.13,23.56,6.26c0.11,0.06,0.28-0.07,0.39-0.17l0.04-0.04l0.06-0.06l0,0l3.63,3.61
			l0.5-0.5l0.91-0.91L25.5,4.52L25.5,4.52z"/>
		<path class="st2" d="M34.06,8.33l0.19-0.18l1.72,1.7c0.01,0.01,0.02,0.01,0.04,0.01c0.03,0,0.06-0.03,0.06-0.03
			s1.9-1.89,1.91-1.89c0.06-0.06,0-0.09,0-0.09l-1.47-1.48l0,0l-0.2-0.2l0.11-0.11l0.24,0.03l-0.05-0.32l0.06-0.06l-0.09-0.46
			c-0.31-0.44-1.17-1.16-1.17-1.16l-0.45-0.08l-0.05,0.06l-0.34-0.05l0.03,0.29l0.02,0.02l-0.1,0.1L33.98,3.9
			c0,0-3.22-1.75-3.39-1.83C30.49,2.03,30.42,2,30.35,2c-0.05,0-0.1,0.02-0.16,0.06c-0.14,0.1-0.06,0.29-0.06,0.29l2,3.7l0.4,0.4
			l-0.13,0.13l0,0l-0.05,0.05l-0.32-0.04l0.05,0.32L32,6.98l-0.02-0.02c-0.01-0.01-0.04-0.02-0.06-0.02s-0.04,0.01-0.06,0.02
			c-0.03,0.03-0.03,0.08,0,0.11l0.02,0.02l-0.04,0.04l-0.01-0.01C31.82,7.11,31.8,7.1,31.78,7.1c-0.02,0-0.04,0.01-0.06,0.02
			c-0.03,0.03-0.03,0.08,0,0.11l0.01,0.01l-0.84,0.85l-0.02-0.02c-0.02-0.01-0.04-0.02-0.06-0.02c-0.02,0-0.04,0.01-0.06,0.02
			c-0.03,0.03-0.03,0.08,0,0.11l0.02,0.02l-0.04,0.04l-0.01-0.01c-0.01-0.02-0.04-0.02-0.05-0.02c-0.02,0-0.04,0.01-0.06,0.02
			c-0.03,0.03-0.03,0.08,0,0.11l0.01,0.01l-0.11,0.11L30.5,8.61l0.06,0.06l0,0l-0.07,0.07l-4.54,4.54l-0.06-0.05l-0.19,0.03
			l-0.11,0.11l-0.01-0.01c-0.02-0.02-0.04-0.02-0.06-0.02c-0.02,0-0.04,0.01-0.06,0.02c-0.03,0.03-0.03,0.08,0,0.11l0.01,0.01
			l-0.04,0.05l0,0c-0.01-0.02-0.04-0.02-0.06-0.02c-0.02,0-0.04,0.01-0.06,0.02c-0.03,0.03-0.03,0.08,0,0.11l0,0.01l-0.83,0.85
			l-0.02-0.02c-0.02-0.02-0.03-0.02-0.06-0.02c-0.02,0-0.04,0.01-0.06,0.02c-0.03,0.03-0.03,0.08,0,0.11l0.02,0.02l-0.04,0.04
			l-0.01-0.01c-0.02-0.01-0.04-0.02-0.06-0.02c-0.02,0-0.04,0.01-0.05,0.02c-0.03,0.03-0.03,0.08,0,0.11l0.01,0.01l-0.06,0.06
			l-0.32-0.06l0.02,0.36l-0.1,0.1l0.09,0.48c0,0,0.14,0.42,0.41,0.7c0.27,0.27,0.68,0.4,0.7,0.42l0.46,0.08l0.11-0.11l0.32,0.05
			l-0.05-0.32l0.1-0.1l0.04,0.04c0.01,0.01,0.03,0.02,0.05,0.02c0.02,0,0.04-0.01,0.06-0.02c0.03-0.03,0.03-0.08,0-0.11l-0.04-0.04
			l0.05-0.04l0.04,0.04c0.01,0.02,0.04,0.02,0.06,0.02s0.04-0.01,0.06-0.02c0.03-0.03,0.03-0.08,0-0.11l-0.04-0.04l0.84-0.83
			l0.04,0.04c0.01,0.02,0.04,0.02,0.06,0.02s0.04-0.01,0.06-0.02c0.03-0.03,0.03-0.08,0-0.11l-0.04-0.04l0.04-0.04l0.03,0.03
			c0.01,0.01,0.03,0.02,0.05,0.02c0.02,0,0.04-0.01,0.06-0.02c0.03-0.03,0.03-0.08,0-0.11l-0.03-0.03l0.09-0.09l0.03-0.2l-0.05-0.05
			l0,0l0.09-0.09l4.51-4.51l0,0l0.09,0.09l0.14-0.02l0.13-0.13l0.02,0.02c0.02,0.01,0.04,0.02,0.06,0.02s0.04-0.01,0.06-0.02
			c0.03-0.03,0.03-0.08,0-0.11l-0.02-0.02l0.04-0.04l0.02,0.02c0.01,0.01,0.03,0.02,0.06,0.02c0.02,0,0.04-0.01,0.05-0.02
			c0.03-0.03,0.03-0.08,0-0.11L32.6,9.8l0.84-0.84l0.02,0.02C33.48,8.99,33.5,9,33.52,9c0.02,0,0.04-0.01,0.06-0.02
			c0.03-0.03,0.03-0.08,0-0.11l-0.02-0.02l0.04-0.04l0.02,0.02c0.02,0.01,0.04,0.02,0.06,0.02c0.02,0,0.04-0.01,0.06-0.02
			c0.03-0.03,0.03-0.08,0-0.11l-0.02-0.02l0.09-0.09l0.31,0.05L34.06,8.33z"/>
		<polygon class="st2" points="34.69,13.43 32.69,11.91 32.33,11.54 30.95,12.92 31.3,13.26 32.6,15.21 34.36,17.13 36.38,15.24 		
			"/>
	</g>
</g>
<g>
	<title>hypesquad-event-attendee</title>
	<path class="st3" d="M14.69,47.61l-5.91,3.88c-0.1,0.07-0.18,0.16-0.23,0.26l-0.9,1.8c-0.04,0.08-0.14,0.12-0.22,0.09
		c-0.04-0.02-0.07-0.05-0.09-0.09l-0.9-1.8c-0.05-0.11-0.13-0.2-0.23-0.26l-5.91-3.88c-0.06-0.07-0.17-0.08-0.24-0.02
		s-0.08,0.17-0.02,0.24l2.47,4.8c0.04,0.09,0,0.19-0.08,0.24c-0.02,0.01-0.03,0.01-0.05,0.02H0.89c-0.1,0-0.17,0.08-0.17,0.17
		c0,0.06,0.03,0.11,0.07,0.14l6.61,4.74c0.08,0,0.13,0,0.21,0l6.61-4.74c0.08-0.06,0.09-0.16,0.04-0.24
		c-0.03-0.05-0.09-0.07-0.14-0.07h-1.48c-0.1,0-0.17-0.09-0.17-0.18c0-0.02,0.01-0.05,0.02-0.07l2.48-4.8
		c0.06-0.07,0.05-0.18-0.02-0.24S14.76,47.53,14.69,47.61L14.69,47.61z"/>
	<path class="st3" d="M7.63,43.97l0.61,1.24c0.02,0.04,0.06,0.07,0.11,0.08l1.37,0.2c0.08,0.01,0.13,0.09,0.12,0.16
		c0,0.03-0.02,0.06-0.04,0.08L8.8,46.69c-0.03,0.03-0.05,0.08-0.04,0.13l0.23,1.36c0.01,0.08-0.03,0.15-0.11,0.16
		c-0.03,0.01-0.07,0-0.09-0.01l-1.22-0.64c-0.04-0.02-0.09-0.02-0.13,0l-1.22,0.64c-0.07,0.04-0.15,0.01-0.19-0.05
		C6.01,48.24,6,48.21,6.01,48.17l0.23-1.36c0.01-0.05-0.01-0.09-0.04-0.13l-0.99-0.96c-0.06-0.06-0.06-0.15,0-0.2
		c0.02-0.02,0.05-0.04,0.08-0.04l1.37-0.19c0.05-0.01,0.09-0.04,0.11-0.08l0.61-1.24c0.03-0.07,0.12-0.1,0.19-0.07
		C7.59,43.92,7.62,43.94,7.63,43.97z"/>
</g>
<g>
	<g>
		<path class="st2" d="M2.5,3.52c0,0,0.18-0.27,0.26-0.4c0.08-0.12-0.2-0.41-0.3-0.5C2.35,2.53,2.18,2.58,2.18,2.58
			c-1.33,0.59-2,1.8-2.09,2.04s0.23,0.51,0.47,0.64c0.11,0.06,0.28-0.07,0.39-0.17l0.04-0.04l0.06-0.06l0,0L4.67,8.6l0.5-0.5
			L6.07,7.2L2.5,3.52L2.5,3.52z"/>
		<path class="st2" d="M11.06,7.33l0.19-0.18l1.72,1.7c0.01,0.01,0.02,0.01,0.04,0.01c0.03,0,0.06-0.03,0.06-0.03
			s1.9-1.89,1.91-1.89c0.06-0.06,0-0.09,0-0.09l-1.47-1.48l0,0l-0.2-0.2l0.11-0.11l0.24,0.03l-0.05-0.32l0.06-0.06l-0.09-0.46
			c-0.31-0.44-1.17-1.16-1.17-1.16l-0.45-0.08l-0.05,0.06l-0.34-0.05l0.03,0.29l0.02,0.02l-0.1,0.1L10.98,2.9
			c0,0-3.22-1.75-3.39-1.83C7.49,1.03,7.42,1,7.35,1C7.3,1,7.25,1.02,7.19,1.06c-0.14,0.1-0.06,0.29-0.06,0.29l2,3.7l0.4,0.4
			L9.41,5.57l0,0L9.36,5.61L9.04,5.57l0.05,0.32L9,5.98L8.98,5.96C8.97,5.95,8.95,5.94,8.93,5.94S8.89,5.95,8.87,5.96
			c-0.03,0.03-0.03,0.08,0,0.11l0.02,0.02L8.84,6.13L8.83,6.12C8.82,6.11,8.8,6.1,8.78,6.1c-0.02,0-0.04,0.01-0.06,0.02
			c-0.03,0.03-0.03,0.08,0,0.11l0.01,0.01L7.89,7.09L7.87,7.07C7.86,7.06,7.84,7.05,7.82,7.05S7.78,7.06,7.76,7.07
			c-0.03,0.03-0.03,0.08,0,0.11L7.78,7.2L7.74,7.25L7.72,7.23C7.71,7.22,7.69,7.21,7.67,7.21c-0.02,0-0.04,0.01-0.06,0.02
			c-0.03,0.03-0.03,0.08,0,0.11l0.01,0.01L7.52,7.47L7.5,7.61l0.06,0.06l0,0L7.49,7.74l-4.54,4.54l-0.06-0.05L2.7,12.26l-0.11,0.11
			l-0.01-0.01c-0.02-0.02-0.04-0.02-0.06-0.02s-0.04,0.01-0.06,0.02c-0.03,0.03-0.03,0.08,0,0.11l0.01,0.01l-0.04,0.05l0,0
			C2.42,12.5,2.4,12.5,2.38,12.5c-0.02,0-0.04,0.01-0.06,0.02c-0.03,0.03-0.03,0.08,0,0.11l0,0.01L1.5,13.48l-0.02-0.02
			c-0.02-0.02-0.03-0.02-0.06-0.02c-0.02,0-0.04,0.01-0.06,0.02c-0.03,0.03-0.03,0.08,0,0.11l0.02,0.02l-0.04,0.04l-0.01-0.01
			C1.32,13.61,1.3,13.6,1.27,13.6c-0.02,0-0.04,0.01-0.05,0.02c-0.03,0.03-0.03,0.08,0,0.11l0.01,0.01l-0.06,0.06l-0.32-0.06
			l0.02,0.36l-0.1,0.1l0.09,0.48c0,0,0.14,0.42,0.41,0.7c0.27,0.27,0.68,0.4,0.7,0.42l0.46,0.08l0.11-0.11l0.32,0.05l-0.05-0.32
			l0.1-0.1l0.04,0.04C2.98,15.49,3,15.5,3.01,15.5c0.02,0,0.04-0.01,0.06-0.02c0.03-0.03,0.03-0.08,0-0.11l-0.04-0.04l0.05-0.04
			l0.04,0.04c0.01,0.02,0.04,0.02,0.06,0.02c0.02,0,0.04-0.01,0.06-0.02c0.03-0.03,0.03-0.08,0-0.11l-0.04-0.04l0.84-0.83l0.04,0.04
			c0.01,0.02,0.04,0.02,0.06,0.02s0.04-0.01,0.06-0.02c0.03-0.03,0.03-0.08,0-0.11l-0.04-0.04l0.04-0.04l0.03,0.03
			c0.01,0.01,0.03,0.02,0.05,0.02c0.02,0,0.04-0.01,0.06-0.02c0.03-0.03,0.03-0.08,0-0.11l-0.03-0.03l0.09-0.09l0.03-0.2l-0.05-0.05
			l0,0l0.09-0.09l4.51-4.51l0,0l0.09,0.09L9.2,9.19l0.13-0.13l0.02,0.02C9.37,9.1,9.39,9.11,9.41,9.11c0.02,0,0.04-0.01,0.06-0.02
			c0.03-0.03,0.03-0.08,0-0.11L9.44,8.95l0.04-0.04L9.5,8.92c0.01,0.01,0.03,0.02,0.06,0.02c0.02,0,0.04-0.01,0.05-0.02
			c0.03-0.03,0.03-0.08,0-0.11L9.6,8.8l0.84-0.84l0.02,0.02C10.48,7.99,10.5,8,10.52,8c0.02,0,0.04-0.01,0.06-0.02
			c0.03-0.03,0.03-0.08,0-0.11l-0.02-0.02l0.04-0.04l0.02,0.02c0.02,0.01,0.04,0.02,0.06,0.02s0.04-0.01,0.06-0.02
			c0.03-0.03,0.03-0.08,0-0.11l-0.02-0.02l0.09-0.09l0.31,0.05L11.06,7.33z"/>
		<polygon class="st2" points="11.69,12.43 9.69,10.91 9.33,10.54 7.95,11.92 8.3,12.26 9.6,14.21 11.36,16.13 13.38,14.24 		"/>
	</g>
</g>
<g class="st0">
	<title>hypesquad-event-attendee</title>
	<path class="st4" d="M14.69,49.53L8.79,53.4c-0.1,0.07-0.18,0.16-0.23,0.26l-0.9,1.8c-0.04,0.08-0.14,0.12-0.22,0.09
		c-0.04-0.02-0.07-0.05-0.09-0.09l-0.9-1.8c-0.05-0.11-0.13-0.2-0.23-0.26l-5.91-3.88c-0.06-0.07-0.17-0.08-0.24-0.02
		c-0.07,0.06-0.08,0.17-0.02,0.24l2.47,4.8c0.04,0.09,0,0.19-0.08,0.24c-0.02,0.01-0.03,0.01-0.05,0.02H0.89
		c-0.1,0-0.17,0.08-0.17,0.17c0,0.06,0.03,0.11,0.07,0.14l6.61,4.74c0.08,0,0.13,0,0.21,0l6.61-4.74c0.08-0.06,0.09-0.16,0.04-0.24
		c-0.03-0.05-0.09-0.07-0.14-0.07h-1.48c-0.1,0-0.17-0.09-0.17-0.18c0-0.02,0.01-0.05,0.02-0.07l2.48-4.8
		c0.06-0.07,0.05-0.18-0.02-0.24C14.86,49.44,14.76,49.45,14.69,49.53L14.69,49.53z"/>
	<path class="st4" d="M7.63,45.89l0.61,1.24c0.02,0.04,0.06,0.07,0.11,0.08l1.37,0.2c0.08,0.01,0.13,0.09,0.12,0.16
		c0,0.03-0.02,0.06-0.04,0.08L8.8,48.61c-0.03,0.03-0.05,0.08-0.04,0.13l0.23,1.36c0.01,0.08-0.03,0.15-0.11,0.16
		c-0.03,0.01-0.07,0-0.09-0.01l-1.22-0.64c-0.04-0.02-0.09-0.02-0.13,0l-1.22,0.64c-0.07,0.04-0.15,0.01-0.19-0.05
		C6.01,50.16,6,50.13,6.01,50.09l0.23-1.36c0.01-0.05-0.01-0.09-0.04-0.13l-0.99-0.96c-0.06-0.06-0.06-0.15,0-0.2
		c0.02-0.02,0.05-0.04,0.08-0.04l1.37-0.19c0.05-0.01,0.09-0.04,0.11-0.08l0.61-1.24c0.03-0.07,0.12-0.1,0.19-0.07
		C7.59,45.84,7.62,45.86,7.63,45.89z"/>
</g>
<g>
	<g>
		<path class="st5" d="M43.18,55.22l-1.35-7.43l3.71,4.73l2.36-4.73l2.36,4.73l3.71-4.73l-1.35,7.43H43.18L43.18,55.22z
			 M52.63,57.25c0,0.37-0.3,0.68-0.68,0.68h-8.1c-0.37,0-0.68-0.3-0.68-0.68v-0.68h9.45V57.25z"/>
		<rect x="39.8" y="45.09" class="st6" width="16.2" height="16.2"/>
	</g>
</g>
<g transform="translate(0 6)">
	<defs>
		<filter id="Adobe_OpacityMaskFilter" filterUnits="userSpaceOnUse" x="38.35" y="-0.77" width="20.24" height="10.02">
			<feColorMatrix  type="matrix" values="1 0 0 0 0  0 1 0 0 0  0 0 1 0 0  0 0 0 1 0"/>
		</filter>
	</defs>
	
		<mask maskUnits="userSpaceOnUse" x="38.35" y="-0.77" width="20.24" height="10.02" id="ic_profile_badge_partner_color_32px-b_2_">
		<g class="st7">
			<polygon id="ic_profile_badge_partner_color_32px-a_2_" class="st8" points="38.35,4.24 38.35,-0.77 58.59,-0.77 58.59,4.24 
				58.59,9.25 38.35,9.25 			"/>
		</g>
	</mask>
	<path class="st9" d="M53.79-0.77c-2.48,0-3.95,1.35-4.43,1.87c-0.09,0.1-0.08,0.25,0.01,0.33l2.22,2.03c0.09,0.08,0.22,0.08,0.31,0
		c0.26-0.25,0.89-0.72,1.9-0.72c1.38,0,1.37,1.59,1.37,1.59c0,0.01-0.02,1.4-1.37,1.4c-0.64,0-1.38-0.21-2.48-1.17
		c-0.64-0.56-0.76-0.69-1.54-1.44c-0.78-0.75-3.64-3.9-6.62-3.9c-3,0-4.8,2.5-4.8,4.91c0,0.68,0.12,2,0.95,3.19
		c0.86,1.24,2.23,1.92,3.85,1.92c2.48,0,3.95-1.25,4.43-1.75c0.09-0.09,0.09-0.24-0.01-0.34l-2.13-2.04
		c-0.08-0.08-0.2-0.08-0.29-0.02c-0.29,0.21-0.97,0.63-1.99,0.63c-0.01,0-0.02,0-0.03,0c-0.16-0.02-1.35-0.23-1.35-1.58
		c0-0.01,0-0.01,0-0.02c0.01-0.13,0.09-1.39,1.37-1.39c1.51,0,2.98,1.64,4.08,2.76c1.59,1.63,3.5,3.85,6.55,3.75
		c3-0.1,4.8-2.5,4.8-4.91c0-0.68-0.12-2-0.95-3.19C56.78-0.09,55.41-0.77,53.79-0.77"/>
</g>
<g class="st0">
	<title>hypesquad-event-attendee</title>
	<path class="st4" d="M14.7,48.8l-5.82,3.82c-0.1,0.07-0.18,0.16-0.24,0.27l-0.89,1.78c-0.04,0.08-0.13,0.12-0.22,0.09
		c-0.04-0.02-0.07-0.05-0.09-0.09l-0.89-1.78c-0.05-0.11-0.14-0.2-0.24-0.27L0.5,48.8c-0.06-0.07-0.17-0.08-0.24-0.02
		s-0.08,0.17-0.02,0.24l2.43,4.73c0.04,0.09,0,0.19-0.08,0.23C2.58,53.99,2.56,54,2.54,54H1.08c-0.09,0-0.17,0.07-0.17,0.17
		c0,0.06,0.03,0.11,0.07,0.14l6.52,4.67c0.07,0,0.13,0,0.2,0l6.52-4.67c0.08-0.06,0.09-0.16,0.04-0.24
		C14.23,54.03,14.18,54,14.12,54h-1.46c-0.1,0-0.17-0.08-0.17-0.18c0-0.02,0.01-0.05,0.02-0.07l2.45-4.73
		c0.06-0.07,0.05-0.18-0.02-0.24S14.76,48.73,14.7,48.8L14.7,48.8z"/>
	<path class="st4" d="M7.73,44.89l0.6,1.22c0.02,0.04,0.06,0.07,0.11,0.08l1.35,0.19c0.08,0.01,0.13,0.08,0.12,0.16
		c0,0.03-0.02,0.06-0.04,0.08l-0.98,0.95c-0.03,0.03-0.05,0.08-0.04,0.12l0.23,1.34c0.01,0.07-0.03,0.15-0.11,0.16
		c-0.03,0.01-0.07,0-0.09-0.01l-1.21-0.63c-0.04-0.02-0.09-0.02-0.13,0l-1.21,0.63c-0.07,0.04-0.15,0.01-0.19-0.05
		c-0.02-0.03-0.02-0.06-0.01-0.09l0.23-1.34c0.01-0.05-0.01-0.09-0.04-0.12l-0.98-0.95c-0.06-0.05-0.06-0.14,0-0.2
		c0.02-0.02,0.05-0.04,0.08-0.04l1.35-0.19c0.05-0.01,0.08-0.04,0.11-0.08l0.6-1.22c0.03-0.07,0.12-0.1,0.19-0.07
		C7.69,44.84,7.71,44.86,7.73,44.89z"/>
</g>
<g class="st0">
	<title>badges-2</title>
	<path class="st10" d="M2.85,3l0.28-0.44C3.2,2.43,2.91,2.12,2.79,2.02c-0.09-0.04-0.2-0.04-0.29,0C1.51,2.47,0.71,3.23,0.22,4.2
		c-0.1,0.26,0.25,0.56,0.51,0.7c0.26,0.14,0.31-0.09,0.43-0.19l0,0l0.05-0.1l0,0l4,3.92L5.74,8l0.99-0.99L2.83,3H2.85z"/>
	<path class="st10" d="M12,6.9l0.38-0.21l1.91,1.86l0,0c0.02,0.01,0.04,0.01,0.07,0L16,6.47v-0.1l-1.15-1.6l0,0l-0.23-0.22L14.75,4
		h0.26l-0.05,0.09l0.07-0.07l-0.1-0.5c-0.38-0.46-0.81-0.88-1.28-1.25L12,2.18v0.07l1-0.07V2.5l0,0l-0.37,0.12l-0.52-0.54L8.39,0.08
		C8.31,0.04,8.22,0.01,8.13,0C8.07,0,8.01,0.03,7.96,0.07C7.8,0.17,7.89,0.38,7.89,0.38l2.18,4.03l0.44,0.43L10.38,5l0,0h-0.05H9.93
		l0.05,0.33L9.93,6l0,0H9.88H9.79c-0.03-0.52,0,0,0,0l0,0H9.73l0,0H9.68H9.61c-0.03-0.4-0.03-0.34,0-0.31l0,0L8.7,6l0,0l0,0H8.63
		c-0.03,0.64-0.03,0.69,0,1l0,0l0,0l0,0l0,0H8.57c-0.03-0.24-0.03-0.19,0-0.16l0,0L8,6.96v0.15l0.51,0.07l0,0L8.44,7.26L3.39,12
		H3.32H3.12L3,12.41l0,0c-0.04-0.03-0.09-0.03-0.13,0c-0.03,0.03,0-0.41,0-0.41H2.85l0,0l0,0c0,0,0,0-0.05,0
		c-0.02-0.01-0.04-0.01-0.06,0c-0.03,0.03-0.03,0.08,0,0.12l0,0L1.86,13H1.84H1.79H1.72C1.69,13.6,1.69,13.66,2,13.69l0,0V14H1.72
		H1.66H1.6c-0.03-0.22-0.03-0.17,0-0.14l0,0l-0.07,0.07L1,13.86v0.39l0.08,0.12l0.1,0.52c0.1,0.28,0.25,0.55,0.45,0.77
		c0.22,0.2,0.48,0.35,0.76,0.45l0.51,0.09l0.12-0.12l0.35,0.05l-0.05-0.35l0.11-0.1l0,0l0,0c0.02,0.01,0.04,0.01,0.07,0
		c0.03-0.03,0.03-0.09,0-0.69l0,0l0,0l0,0h0.07c0.02,0.58,0.04,0.58,0.05,0.57c0.03-0.03,0.03-0.09,0-0.12l0,0l0.87-0.93l0,0
		c0.04,0.03,0.09,0.03,0.13,0c0.02-0.04,0.02-0.08,0-0.53l0,0l0,0l0,0h0.07h0.05c0.03,0.38,0.04,0.33,0.01,0.3
		c0,0-0.01-0.01-0.01-0.01l0,0L5,14.19v-0.23l0,0l0,0l-0.05-0.1l4.98-5.01l0,0L10.03,8h0.15l0.14,1l0,0h0.07
		c0.02-0.17,0.04-0.17,0.05-0.18c0.03-0.03,0,0.18,0,0.18l0,0h0.05l0,0c0.02-0.29,0.04-0.29,0.07-0.3l0,0
		c0.03-0.03,0.03-0.09,0-0.12l0,0l0.94-0.95l0,0c0.02,0.01,0.04,0.01,0.07,0c0.02,0.01,0.04,0.01,0.05,0c0.03-0.03,0-0.63,0-0.63
		l0,0l0,0l0,0h0.07c0.02,0.52,0.04,0.52,0.05,0.51c0.03-0.03,0.03-0.09,0-0.12l0,0L11.84,7H12V6.9z"/>
	<polygon class="st10" points="12.86,12.46 10.68,10.8 10.29,10.4 8.79,11.9 9.17,12.27 10.58,14.4 12.5,16.49 14.7,14.43 	"/>
	<path class="st4" d="M16.22,49.72l-5.88,3.85c-0.1,0.07-0.18,0.16-0.24,0.27l-0.9,1.79c-0.03,0.08-0.12,0.13-0.2,0.1
		c-0.01,0-0.01,0-0.02-0.01c-0.04-0.02-0.07-0.05-0.08-0.09l-0.9-1.79c-0.06-0.11-0.14-0.2-0.24-0.27L1.9,49.72
		c-0.06-0.07-0.17-0.07-0.24-0.01c0,0-0.01,0.01-0.01,0.01c-0.09,0.04-0.13,0.14-0.09,0.22c0.01,0.02,0.02,0.03,0.03,0.05l2.46,4.78
		c0.04,0.08,0,0.19-0.08,0.23c0,0-0.01,0-0.01,0l0,0H2.48c-0.09,0-0.17,0.08-0.17,0.17c-0.01,0.06,0.02,0.11,0.07,0.14L8.96,60H8.23
		l7.85-5.63c0.08-0.07,0.09-0.19,0.02-0.27c-0.01-0.01-0.01-0.01-0.02-0.02c-0.04-0.05-0.1-0.08-0.17-0.08H14.2
		c-0.11,0-0.2-0.09-0.2-0.2c0,0,0,1,0,0.99c-0.01-0.02-0.01-0.05,0-0.07l2.53-4.73c0.07-0.07,0.07-0.17,0-0.24
		c-0.06-0.07-0.17-0.07-0.24-0.01c0,0-0.01,0.01-0.01,0.01L16.22,49.72z"/>
	<path class="st4" d="M8.44,44.78l0.66,1.35c0.02,0.04,0.06,0.07,0.11,0.09l1.49,0.21c0.09,0.02,0.14,0.1,0.13,0.19
		c0.01,0.03,0.01,0.06,0,0.09l-1.09,1.09c-0.02,0.05-0.02,0.1,0,0.14l0.19,1.43c0.02,0.08-0.03,0.16-0.11,0.18c0,0,0,0-0.01,0
		c-0.03,0.02-0.07,0.02-0.1,0l-1.33-0.69c-0.05-0.03-0.11-0.03-0.15,0L6.9,49.55c-0.06,0.05-0.15,0.05-0.21,0
		c-0.01-0.04-0.01-0.07,0-0.11l0.25-1.47c0.02-0.05,0.02-0.1,0-0.14l-1.09-1.09c-0.06-0.05-0.07-0.14-0.02-0.2
		c0.01-0.01,0.01-0.01,0.02-0.02c0.03-0.01,0.06-0.01,0.09,0l1.49-0.21c0.05-0.01,0.09-0.04,0.11-0.09l0.66-1.34
		c-0.02-0.08,0.02-0.17,0.1-0.19c0.02,0,0.03-0.01,0.05-0.01C8.4,44.7,8.43,44.74,8.44,44.78z"/>
</g>
</svg>
